{
  "accessors": [
    {
      "bufferView": 2,
      "componentType": 5126,
      "count": 389,
      "max": [
        35.635200500488281,
        35.470699310302734,
        57.916099548339844
      ],
      "min": [
        -36.895099639892578,
        -34.944801330566406,
        0.018300000578165054
      ],
      "type": "VEC3"
    },
    {
      "bufferView": 2,
      "byteOffset": 4668,
      "componentType": 5126,
      "count": 389,
      "max": [
        0.990245521068573,
        0.99730122089385986,
        0.99987912178039551
      ],
      "min": [
        -0.99616533517837524,
        -0.99473857879638672,
        -0.99990999698638916
      ],
      "type": "VEC3"
    },
    {
      "bufferView": 3,
      "componentType": 5126,
      "count": 389,
      "max": [
        0.99973881244659424,
        0.99143499135971069,
        0.99838733673095703,
        1
      ],
      "min": [
        -0.99983775615692139,
        -0.98266822099685669,
        -0.99099284410476685,
        1
      ],
      "type": "VEC4"
    },
    {
      "bufferView": 1,
      "componentType": 5126,
      "count": 389,
      "max": [
        0.97740000486373901,
        0.982200026512146
      ],
      "min": [
        0.010900000110268593,
        0.012400000356137753
      ],
      "type": "VEC2"
    },
    {
      "bufferView": 0,
      "componentType": 5125,
      "count": 1872,
      "max": [
        388
      ],
      "min": [
        0
      ],
      "type": "SCALAR"
    },
    {
      "bufferView": 2,
      "byteOffset": 9336,
      "componentType": 5126,
      "count": 603,
      "max": [
        30.259500503540039,
        30.910999298095703,
        62.631801605224609
      ],
      "min": [
        -31.071300506591797,
        -32.096000671386719,
        -0.98199999332427979
      ],
      "type": "VEC3"
    },
    {
      "bufferView": 2,
      "byteOffset": 16572,
      "componentType": 5126,
      "count": 603,
      "max": [
        0.99582326412200928,
        0.99909597635269165,
        0.99994492530822754
      ],
      "min": [
        -0.99806749820709229,
        -0.99867314100265503,
        -0.9996374249458313
      ],
      "type": "VEC3"
    },
    {
      "bufferView": 3,
      "byteOffset": 6224,
      "componentType": 5126,
      "count": 603,
      "max": [
        0.99999380111694336,
        0.9904596209526062,
        0.99782109260559082,
        1
      ],
      "min": [
        -0.99889588356018066,
        -0.99824249744415283,
        -0.99995660781860352,
        -1
      ],
      "type": "VEC4"
    },
    {
      "bufferView": 1,
      "byteOffset": 3112,
      "componentType": 5126,
      "count": 603,
      "max": [
        0.98979997634887695,
        0.98659998178482056
      ],
      "min": [
        0.022600000724196434,
        0.034499999135732651
      ],
      "type": "VEC2"
    },
    {
      "bufferView": 0,
      "byteOffset": 7488,
      "componentType": 5125,
      "count": 2658,
      "max": [
        602
      ],
      "min": [
        0
      ],
      "type": "SCALAR"
    }
  ],
  "asset": {
    "extras": {
      "author": "Alex_Dalt (https://sketchfab.com/alex_dalt)",
      "license": "CC-BY-4.0 (http://creativecommons.org/licenses/by/4.0/)",
      "source": "https://sketchfab.com/models/141ae397898f49ceace96fec8e72f447",
      "title": "Pumpkin Halloween"
    },
    "generator": "Sketchfab-3.42.7",
    "version": "2.0"
  },
  "bufferViews": [
    {
      "buffer": 0,
      "byteLength": 18120,
      "byteOffset": 0,
      "name": "floatBufferViews",
      "target": 34963
    },
    {
      "buffer": 0,
      "byteLength": 7936,
      "byteOffset": 18120,
      "byteStride": 8,
      "name": "floatBufferViews",
      "target": 34962
    },
    {
      "buffer": 0,
      "byteLength": 23808,
      "byteOffset": 26056,
      "byteStride": 12,
      "name": "floatBufferViews",
      "target": 34962
    },
    {
      "buffer": 0,
      "byteLength": 15872,
      "byteOffset": 49864,
      "byteStride": 16,
      "name": "floatBufferViews",
      "target": 34962
    }
  ],
  "buffers": [
    {
      "byteLength": 65736,
      "uri": "pumpkin_halloween.bin"
    }
  ],
  "extensionsRequired": [
    "KHR_materials_pbrSpecularGlossiness"
  ],
  "extensionsUsed": [
    "KHR_materials_pbrSpecularGlossiness"
  ],
  "images": [
    {
      "uri": "textures/pumpkin_halloweenMaterial__25_specularGlossiness.png"
    },
    {
      "uri": "textures/pumpkin_halloweenMaterial__25_diffuse.png"
    },
    {
      "uri": "textures/02_-_Default_specularGlossiness.png"
    },
    {
      "uri": "textures/02_-_Default_normal.png"
    },
    {
      "uri": "textures/02_-_Default_diffuse.png"
    }
  ],
  "materials": [
    {
      "doubleSided": true,
      "emissiveFactor": [
        0,
        0,
        0
      ],
      "extensions": {
        "KHR_materials_pbrSpecularGlossiness": {
          "diffuseFactor": [
            1,
            1,
            1,
            1
          ],
          "diffuseTexture": {
            "index": 1,
            "texCoord": 0
          },
          "glossinessFactor": 1,
          "specularFactor": [
            1,
            1,
            1
          ],
          "specularGlossinessTexture": {
            "index": 0,
            "texCoord": 0
          }
        }
      },
      "name": "pumpkin_halloweenMaterial__25"
    },
    {
      "doubleSided": true,
      "extensions": {
        "KHR_materials_pbrSpecularGlossiness": {
          "diffuseFactor": [
            1,
            1,
            1,
            1
          ],
          "diffuseTexture": {
            "index": 4,
            "texCoord": 0
          },
          "glossinessFactor": 1,
          "specularFactor": [
            1,
            1,
            1
          ],
          "specularGlossinessTexture": {
            "index": 2,
            "texCoord": 0
          }
        }
      },
      "name": "02_-_Default",
      "normalTexture": {
        "index": 3,
        "scale": 1,
        "texCoord": 0
      }
    }
  ],
  "meshes": [
    {
      "name": "Object001__pumpkin_halloweenMaterial__25_0",
      "primitives": [
        {
          "attributes": {
            "NORMAL": 1,
            "POSITION": 0,
            "TANGENT": 2,
            "TEXCOORD_0": 3
          },
          "indices": 4,
          "material": 0,
          "mode": 4
        }
      ]
    },
    {
      "name": "Object003_02 - Default_0",
      "primitives": [
        {
          "attributes": {
            "NORMAL": 6,
            "POSITION": 5,
            "TANGENT": 7,
            "TEXCOORD_0": 8
          },
          "indices": 9,
          "material": 1,
          "mode": 4
        }
      ]
    }
  ],
  "nodes": [
    {
      "children": [
        1
      ],
      "name": "RootNode (gltf orientation matrix)",
      "rotation": [
        -0.70710678118654746,
        -0,
        -0,
        0.70710678118654757
      ]
    },
    {
      "children": [
        2
      ],
      "name": "RootNode (model correction matrix)"
    },
    {
      "children": [
        3
      ],
      "matrix": [
        1,
        0,
        0,
        0,
        0,
        0,
        1,
        0,
        0,
        -1,
        0,
        0,
        0,
        0,
        0,
        1
      ],
      "name": "138425520e914be19224069680822cfc.fbx"
    },
    {
      "children": [
        4,
        6
      ],
      "name": "RootNode"
    },
    {
      "children": [
        5
      ],
      "matrix": [
        1,
        0,
        0,
        0,
        0,
        2.2204460492503131e-16,
        -1,
        0,
        0,
        1,
        2.2204460492503131e-16,
        0,
        -2.7657279968261719,
        0,
        -28.651397705078125,
        1
      ],
      "name": "Object001"
    },
    {
      "mesh": 0,
      "name": "Object001__pumpkin_halloweenMaterial__25_0"
    },
    {
      "children": [
        7
      ],
      "matrix": [
        0.60391368270611256,
        -1.1102230246251565e-16,
        0.79704972482295033,
        0,
        0.79704972482295033,
        0,
        -0.60391368270611268,
        0,
        0,
        1,
        1.1102230246251565e-16,
        0,
        -0.12237930297851562,
        0,
        42.499496459960938,
        1
      ],
      "name": "Object003"
    },
    {
      "mesh": 1,
      "name": "Object003_02 - Default_0"
    }
  ],
  "samplers": [
    {
      "magFilter": 9729,
      "minFilter": 9987,
      "wrapS": 10497,
      "wrapT": 10497
    }
  ],
  "scene": 0,
  "scenes": [
    {
      "name": "OSG_Scene",
      "nodes": [
        0
      ]
    }
  ],
  "textures": [
    {
      "sampler": 0,
      "source": 0
    },
    {
      "sampler": 0,
      "source": 1
    },
    {
      "sampler": 0,
      "source": 2
    },
    {
      "sampler": 0,
      "source": 3
    },
    {
      "sampler": 0,
      "source": 4
    }
  ]
}

